<?xml version="1.0" standalone="no"?><!DOCTYPE svg PUBLIC "-//W3C//DTD SVG 1.1//EN" "http://www.w3.org/Graphics/SVG/1.1/DTD/svg11.dtd"><svg class="icon" width="200px" height="200.00px" viewBox="0 0 1024 1024" version="1.1" xmlns="http://www.w3.org/2000/svg"><path fill="#8a8a8a" d="M791.9 682.7c0 12.6-4.3 23.3-13.2 32l-64.1 64.1c-8.8 8.8-19.5 13.2-32 13.2-12.6 0-23.3-4.3-32-13.2L512 640.1 373.5 778.8c-8.8 8.8-19.5 13.2-32 13.2-12.6 0-23.3-4.3-32-13.2l-64.1-64.1c-8.8-8.8-13.2-19.5-13.2-32s4.3-23.3 13.2-32l138.5-138.5-138.6-138.7c-8.8-8.8-13.2-19.5-13.2-32 0-12.6 4.3-23.3 13.2-32l64.1-64.1c8.8-8.8 19.5-13.2 32-13.2 12.6 0 23.3 4.3 32 13.2L512 383.7l138.5-138.5c8.8-8.8 19.5-13.2 32-13.2 12.6 0 23.3 4.3 32 13.2l64.1 64.1c8.8 8.8 13.2 19.5 13.2 32 0 12.6-4.3 23.3-13.2 32L640.2 512.1l138.5 138.5c8.9 8.7 13.2 19.4 13.2 32.1z" /></svg>