<?xml version="1.0" standalone="no"?><!DOCTYPE svg PUBLIC "-//W3C//DTD SVG 1.1//EN" "http://www.w3.org/Graphics/SVG/1.1/DTD/svg11.dtd"><svg class="icon" width="200px" height="200.00px" viewBox="0 0 1024 1024" version="1.1" xmlns="http://www.w3.org/2000/svg"><path fill="#8a8a8a" d="M878.6 262v33.3c0 4.8-1.5 8.9-4.7 11.9-3.2 3.2-7.1 4.7-11.9 4.7h-50v493.8c0 28.8-8.2 53.7-24.4 74.7-16.3 21-35.9 31.6-58.8 31.6H295.2c-22.9 0-42.5-10.2-58.8-30.5-16.3-20.3-24.4-44.9-24.4-73.7V312.1h-50c-4.8 0-8.9-1.5-11.9-4.7-3.2-3.2-4.7-7.1-4.7-11.9v-33.3c0-4.8 1.5-8.9 4.7-11.9 3.2-3.2 7.1-4.7 11.9-4.7h161l36.5-87c5.3-12.8 14.6-23.8 28.2-32.9 13.6-9 27.3-13.6 41.2-13.6h166.7c13.9 0 27.6 4.5 41.2 13.6 13.6 9 22.9 19.9 28.2 32.9l36.5 87h160.9c4.8 0 8.9 1.5 11.9 4.7 2.8 2.8 4.3 6.9 4.3 11.7zM411.9 762.1V395.3c0-4.8-1.5-8.9-4.7-11.9-3.2-3.2-7.1-4.7-11.9-4.7H362c-4.8 0-8.9 1.5-11.9 4.7-3.2 3.2-4.7 7.1-4.7 11.9v366.8c0 4.8 1.5 8.9 4.7 11.9 3.2 3.2 7.1 4.7 11.9 4.7h33.3c4.8 0 8.9-1.5 11.9-4.7 3.2-3.1 4.7-7.1 4.7-11.9z m-16.6-516.8h233.4l-25-60.9c-2.4-3.2-5.4-5-8.9-5.7H429.7c-3.5 0.7-6.5 2.6-8.9 5.7l-25.5 60.9z m150 516.8V395.3c0-4.8-1.5-8.9-4.7-11.9-3.2-3.2-7.1-4.7-11.9-4.7h-33.3c-4.8 0-8.9 1.5-11.9 4.7-3.2 3.2-4.7 7.1-4.7 11.9v366.8c0 4.8 1.5 8.9 4.7 11.9 3.2 3.2 7.1 4.7 11.9 4.7h33.3c4.8 0 8.9-1.5 11.9-4.7 3.1-3.1 4.7-7.1 4.7-11.9z m133.3 0V395.3c0-4.8-1.5-8.9-4.7-11.9-3.2-3.2-7.1-4.7-11.9-4.7h-33.3c-4.8 0-8.9 1.5-11.9 4.7-3.2 3.2-4.7 7.1-4.7 11.9v366.8c0 4.8 1.5 8.9 4.7 11.9 3.2 3.2 7.1 4.7 11.9 4.7H662c4.8 0 8.9-1.5 11.9-4.7 3.2-3.1 4.7-7.1 4.7-11.9z" /></svg>