<?xml version="1.0" standalone="no"?><!DOCTYPE svg PUBLIC "-//W3C//DTD SVG 1.1//EN" "http://www.w3.org/Graphics/SVG/1.1/DTD/svg11.dtd"><svg class="icon" width="200px" height="200.00px" viewBox="0 0 1024 1024" version="1.1" xmlns="http://www.w3.org/2000/svg"><path fill="#8a8a8a" d="M846.7 466.4v91.3c0 12.7-4.4 23.5-13.3 32.3-8.9 8.9-19.7 13.3-32.3 13.3H603.3v197.8c0 12.7-4.4 23.5-13.3 32.3-8.9 8.9-19.7 13.3-32.3 13.3h-91.3c-12.7 0-23.5-4.4-32.3-13.3-8.9-8.9-13.3-19.7-13.3-32.3V603.3H222.9c-12.7 0-23.5-4.4-32.3-13.3-8.9-8.9-13.3-19.7-13.3-32.3v-91.3c0-12.7 4.4-23.5 13.3-32.3 8.9-8.9 19.7-13.3 32.3-13.3h197.8V222.9c0-12.7 4.4-23.5 13.3-32.3 8.9-8.9 19.7-13.3 32.3-13.3h91.3c12.7 0 23.5 4.4 32.3 13.3 8.9 8.9 13.3 19.7 13.3 32.3v197.8H801c12.7 0 23.5 4.4 32.3 13.3 9 8.9 13.4 19.7 13.4 32.4z" /></svg>