<?xml version="1.0" standalone="no"?><!DOCTYPE svg PUBLIC "-//W3C//DTD SVG 1.1//EN" "http://www.w3.org/Graphics/SVG/1.1/DTD/svg11.dtd"><svg class="icon" width="200px" height="200.00px" viewBox="0 0 1024 1024" version="1.1" xmlns="http://www.w3.org/2000/svg"><path fill="#8a8a8a" d="M766 416.6v68.1H411.7c-26.7 0-54.6 6.7-83.9 20.2-29.3 13.5-52.5 30.4-69.8 50.9L114.5 724.5l-2.1 2.6c0-1.2-0.1-2.9-0.2-5.3-0.2-2.4-0.2-4.2-0.2-5.3V307.7c0-26.1 9.4-48.5 28.1-67.2s41.2-28.1 67.2-28.1h136.3c26.1 0 48.5 9.4 67.2 28.1 18.7 18.7 28.1 41.2 28.1 67.2v13.6h231.7c26.1 0 48.5 9.4 67.2 28.1 18.8 18.7 28.2 41.1 28.2 67.2z m146 146.5c0 8.8-4.4 18.2-13.2 28.1L755.7 759.8c-12.2 14.5-29.3 26.8-51.3 36.8-22 10.1-42.4 15.1-61.1 15.1H180.1c-9.7 0-18.3-1.9-25.8-5.6-7.5-3.7-11.3-9.8-11.3-18.3 0-8.8 4.4-18.2 13.2-28.1l143.1-168.6c12.2-14.5 29.3-26.8 51.3-36.8 22-10 42.4-15.1 61.1-15.1h463.2c9.7 0 18.3 1.9 25.8 5.6 7.5 3.6 11.3 9.8 11.3 18.3z" /></svg>